<svg xmlns="http://www.w3.org/2000/svg" xmlns:xlink="http://www.w3.org/1999/xlink" width="350" zoomAndPan="magnify" viewBox="0 0 262.5 262.500001" height="350" preserveAspectRatio="xMidYMid meet" version="1.0"><defs><g/><clipPath id="0afe1e6c26"><path d="M 26.199219 109 L 53 109 L 53 143 L 26.199219 143 Z M 26.199219 109 " clip-rule="nonzero"/></clipPath><clipPath id="b473f659fe"><path d="M 35 92.941406 L 68 92.941406 L 68 127 L 35 127 Z M 35 92.941406 " clip-rule="nonzero"/></clipPath><clipPath id="3b73be0e2b"><path d="M 76 119 L 102.554688 119 L 102.554688 153 L 76 153 Z M 76 119 " clip-rule="nonzero"/></clipPath><clipPath id="bfa5a669de"><path d="M 73.804688 99.757812 L 228.378906 99.757812 L 228.378906 169.058594 L 73.804688 169.058594 Z M 73.804688 99.757812 " clip-rule="nonzero"/></clipPath><clipPath id="dc149f4e12"><path d="M 85.855469 99.757812 L 216.308594 99.757812 C 222.964844 99.757812 228.359375 105.152344 228.359375 111.808594 L 228.359375 157.007812 C 228.359375 163.664062 222.964844 169.058594 216.308594 169.058594 L 85.855469 169.058594 C 79.199219 169.058594 73.804688 163.664062 73.804688 157.007812 L 73.804688 111.808594 C 73.804688 105.152344 79.199219 99.757812 85.855469 99.757812 Z M 85.855469 99.757812 " clip-rule="nonzero"/></clipPath></defs><g clip-path="url(#0afe1e6c26)"><path fill="#ffb200" d="M 52.234375 142.152344 L 32.664062 109.675781 C 28.558594 115.746094 26.160156 123.058594 26.160156 130.921875 C 26.160156 134.828125 26.753906 138.601562 27.855469 142.152344 Z M 52.234375 142.152344 " fill-opacity="1" fill-rule="nonzero"/></g><path fill="#ffb200" d="M 60.457031 114.800781 L 98.597656 114.800781 C 93.699219 104.382812 84.207031 96.539062 72.746094 93.890625 Z M 60.457031 114.800781 " fill-opacity="1" fill-rule="nonzero"/><g clip-path="url(#b473f659fe)"><path fill="#ffb200" d="M 48.210938 126.570312 L 67.890625 93.085938 C 66.667969 92.96875 65.429688 92.902344 64.179688 92.902344 C 52.84375 92.902344 42.65625 97.894531 35.6875 105.789062 Z M 48.210938 126.570312 " fill-opacity="1" fill-rule="nonzero"/></g><path fill="#ffb200" d="M 56.136719 167.742188 L 68.179688 146.746094 L 29.625 146.746094 C 34.679688 157.742188 44.828125 165.925781 57.035156 168.257812 Z M 56.136719 167.742188 " fill-opacity="1" fill-rule="nonzero"/><g clip-path="url(#3b73be0e2b)"><path fill="#ffb200" d="M 76.066406 119.394531 L 95.28125 152.742188 C 99.632812 146.558594 102.195312 139.035156 102.195312 130.921875 C 102.195312 126.902344 101.566406 123.03125 100.40625 119.394531 Z M 76.066406 119.394531 " fill-opacity="1" fill-rule="nonzero"/></g><path fill="#ffb200" d="M 79.980469 135.398438 L 60.839844 168.785156 C 61.9375 168.878906 63.050781 168.9375 64.179688 168.9375 C 75.257812 168.9375 85.238281 164.175781 92.195312 156.589844 Z M 79.980469 135.398438 " fill-opacity="1" fill-rule="nonzero"/><g clip-path="url(#bfa5a669de)"><g clip-path="url(#dc149f4e12)"><path fill="#ffffff" d="M 73.804688 99.757812 L 228.378906 99.757812 L 228.378906 169.058594 L 73.804688 169.058594 Z M 73.804688 99.757812 " fill-opacity="1" fill-rule="nonzero"/></g></g><g fill="#000000" fill-opacity="1"><g transform="translate(79.292736, 157.315231)"><g><path d="M 10.5 -18.03125 L 10.921875 -18.03125 C 11.785156 -18.03125 12.617188 -17.910156 13.421875 -17.671875 C 14.234375 -17.429688 14.972656 -17.082031 15.640625 -16.625 C 16.316406 -16.164062 16.898438 -15.601562 17.390625 -14.9375 C 17.890625 -14.269531 18.253906 -13.503906 18.484375 -12.640625 C 18.546875 -12.335938 18.59375 -12.082031 18.625 -11.875 C 18.664062 -11.675781 18.6875 -11.515625 18.6875 -11.390625 L 18.6875 -11.234375 L 13.453125 -11.234375 L 13.34375 -11.5 C 13.238281 -11.851562 13.078125 -12.210938 12.859375 -12.578125 C 12.640625 -12.953125 12.40625 -13.21875 12.15625 -13.375 C 11.789062 -13.695312 11.289062 -13.890625 10.65625 -13.953125 L 10.5 -13.984375 Z M 9.3125 -18 C 9.34375 -18.019531 9.445312 -18.03125 9.625 -18.03125 L 9.8125 -18.03125 L 9.8125 -14.0625 L 9.546875 -13.953125 C 9.035156 -13.765625 8.578125 -13.410156 8.171875 -12.890625 C 7.765625 -12.367188 7.4375 -11.710938 7.1875 -10.921875 C 7.050781 -10.472656 6.957031 -9.960938 6.90625 -9.390625 C 6.851562 -8.828125 6.84375 -8.207031 6.875 -7.53125 C 6.894531 -7.113281 6.9375 -6.628906 7 -6.078125 C 7.070312 -5.535156 7.1875 -5.003906 7.34375 -4.484375 C 7.507812 -3.960938 7.726562 -3.484375 8 -3.046875 C 8.269531 -2.617188 8.625 -2.300781 9.0625 -2.09375 C 9.15625 -2.050781 9.25 -2.015625 9.34375 -1.984375 C 9.4375 -1.960938 9.53125 -1.9375 9.625 -1.90625 L 9.859375 -1.84375 L 9.859375 2.171875 L 9.4375 2.140625 C 7.039062 2.003906 5.160156 1.265625 3.796875 -0.078125 C 2.441406 -1.429688 1.609375 -3.25 1.296875 -5.53125 C 1.273438 -5.707031 1.253906 -5.925781 1.234375 -6.1875 C 1.222656 -6.445312 1.21875 -6.773438 1.21875 -7.171875 C 1.175781 -7.960938 1.175781 -8.5625 1.21875 -8.96875 C 1.445312 -11.394531 2.25 -13.40625 3.625 -15 C 5 -16.59375 6.894531 -17.59375 9.3125 -18 Z M 13.375 -4.5 L 13.453125 -4.671875 L 16.15625 -4.671875 C 17.9375 -4.710938 18.828125 -4.707031 18.828125 -4.65625 C 18.828125 -4.613281 18.800781 -4.421875 18.75 -4.078125 C 18.570312 -3.085938 18.253906 -2.207031 17.796875 -1.4375 C 17.347656 -0.675781 16.789062 -0.03125 16.125 0.5 C 15.457031 1.03125 14.695312 1.4375 13.84375 1.71875 C 12.988281 2 12.066406 2.148438 11.078125 2.171875 L 10.5 2.1875 L 10.5 -1.765625 L 10.703125 -1.796875 C 11.390625 -1.890625 11.945312 -2.128906 12.375 -2.515625 C 12.851562 -3.003906 13.1875 -3.664062 13.375 -4.5 Z M 13.375 -4.5 "/></g></g></g><g fill="#000000" fill-opacity="1"><g transform="translate(99.035269, 157.315231)"><g><path d="M 1.5 -17.8125 C 1.675781 -17.8125 1.890625 -17.820312 2.140625 -17.84375 C 2.347656 -17.84375 2.609375 -17.847656 2.921875 -17.859375 C 3.242188 -17.867188 3.617188 -17.875 4.046875 -17.875 L 7.375 -17.875 L 7.375 2.015625 L 1.984375 2.015625 L 1.984375 -9.203125 C 1.984375 -11.273438 1.984375 -12.914062 1.984375 -14.125 C 1.984375 -15.332031 1.972656 -16.113281 1.953125 -16.46875 C 1.941406 -17.15625 1.890625 -17.546875 1.796875 -17.640625 C 1.765625 -17.671875 1.75 -17.6875 1.75 -17.6875 C 1.644531 -17.757812 1.5625 -17.800781 1.5 -17.8125 Z M 12.828125 -17.796875 L 12.609375 -17.875 L 18.484375 -17.875 L 18.484375 2.015625 L 13.1875 2.015625 L 13.1875 -7.671875 C 13.1875 -14.117188 13.160156 -17.394531 13.109375 -17.5 C 13.078125 -17.550781 13.035156 -17.601562 12.984375 -17.65625 C 12.941406 -17.707031 12.890625 -17.753906 12.828125 -17.796875 Z M 7.984375 -10.4375 L 12.578125 -10.4375 L 12.578125 -6.390625 L 7.984375 -6.390625 Z M 7.984375 -10.4375 "/></g></g></g><g fill="#000000" fill-opacity="1"><g transform="translate(119.491386, 157.315231)"><g><path d="M 5.34375 -17.796875 C 5.289062 -17.804688 5.304688 -17.820312 5.390625 -17.84375 C 5.515625 -17.863281 5.890625 -17.875 6.515625 -17.875 C 7.140625 -17.875 7.972656 -17.875 9.015625 -17.875 L 12.984375 -17.875 L 13.171875 -17.34375 C 13.253906 -16.96875 13.410156 -16.410156 13.640625 -15.671875 C 13.785156 -15.210938 13.898438 -14.820312 13.984375 -14.5 C 14.078125 -14.1875 14.140625 -13.945312 14.171875 -13.78125 C 14.191406 -13.664062 14.320312 -13.207031 14.5625 -12.40625 C 14.8125 -11.601562 15 -10.96875 15.125 -10.5 C 15.3125 -9.84375 15.492188 -9.207031 15.671875 -8.59375 C 15.847656 -7.976562 16.023438 -7.390625 16.203125 -6.828125 C 16.242188 -6.703125 16.289062 -6.546875 16.34375 -6.359375 C 16.394531 -6.171875 16.460938 -5.953125 16.546875 -5.703125 C 16.617188 -5.460938 16.671875 -5.265625 16.703125 -5.109375 C 16.742188 -4.960938 16.769531 -4.863281 16.78125 -4.8125 C 16.800781 -4.78125 16.820312 -4.703125 16.84375 -4.578125 C 16.875 -4.453125 16.925781 -4.289062 17 -4.09375 C 17.132812 -3.6875 17.210938 -3.40625 17.234375 -3.25 C 17.253906 -3.195312 17.28125 -3.097656 17.3125 -2.953125 C 17.351562 -2.816406 17.394531 -2.671875 17.4375 -2.515625 C 17.476562 -2.367188 17.519531 -2.234375 17.5625 -2.109375 C 17.613281 -1.992188 17.640625 -1.914062 17.640625 -1.875 C 17.648438 -1.851562 17.707031 -1.648438 17.8125 -1.265625 C 17.832031 -1.191406 17.875 -1.046875 17.9375 -0.828125 C 18 -0.609375 18.0625 -0.390625 18.125 -0.171875 C 18.195312 0.046875 18.257812 0.25 18.3125 0.4375 C 18.375 0.625 18.410156 0.722656 18.421875 0.734375 C 18.421875 0.804688 18.445312 0.929688 18.5 1.109375 C 18.550781 1.285156 18.597656 1.398438 18.640625 1.453125 C 18.660156 1.554688 18.675781 1.644531 18.6875 1.71875 C 18.707031 1.800781 18.726562 1.875 18.75 1.9375 C 18.757812 1.945312 18.734375 1.960938 18.671875 1.984375 C 18.597656 2.003906 18.351562 2.015625 17.9375 2.015625 C 17.519531 2.015625 16.96875 2.015625 16.28125 2.015625 L 13.5625 2.015625 L 13.453125 1.6875 C 13.421875 1.601562 13.382812 1.492188 13.34375 1.359375 C 13.3125 1.222656 13.28125 1.070312 13.25 0.90625 C 13.25 0.863281 13.226562 0.78125 13.1875 0.65625 C 13.15625 0.53125 13.113281 0.375 13.0625 0.1875 C 12.988281 -0.0078125 12.929688 -0.191406 12.890625 -0.359375 C 12.847656 -0.523438 12.804688 -0.675781 12.765625 -0.8125 L 12.453125 -2.09375 L 6.484375 -2.09375 L 6.421875 -1.90625 C 6.265625 -1.34375 6.117188 -0.804688 5.984375 -0.296875 C 5.859375 0.210938 5.738281 0.691406 5.625 1.140625 L 5.390625 2.015625 L 2.703125 2.015625 C 1.992188 1.992188 1.429688 1.976562 1.015625 1.96875 C 0.597656 1.957031 0.390625 1.945312 0.390625 1.9375 C 0.898438 0.332031 1.382812 -1.273438 1.84375 -2.890625 C 2.300781 -4.503906 2.753906 -6.128906 3.203125 -7.765625 C 3.203125 -7.804688 3.234375 -7.945312 3.296875 -8.1875 C 3.367188 -8.425781 3.425781 -8.613281 3.46875 -8.75 C 3.550781 -9.007812 3.628906 -9.269531 3.703125 -9.53125 C 3.773438 -9.800781 3.84375 -10.078125 3.90625 -10.359375 C 3.976562 -10.609375 4.050781 -10.878906 4.125 -11.171875 C 4.207031 -11.472656 4.304688 -11.800781 4.421875 -12.15625 C 4.429688 -12.207031 4.453125 -12.304688 4.484375 -12.453125 C 4.523438 -12.609375 4.566406 -12.769531 4.609375 -12.9375 C 4.648438 -13.101562 4.691406 -13.257812 4.734375 -13.40625 C 4.785156 -13.5625 4.8125 -13.65625 4.8125 -13.6875 C 4.84375 -13.78125 4.875 -13.890625 4.90625 -14.015625 C 4.945312 -14.140625 4.992188 -14.289062 5.046875 -14.46875 C 5.140625 -14.8125 5.191406 -15.007812 5.203125 -15.0625 C 5.242188 -15.15625 5.285156 -15.304688 5.328125 -15.515625 C 5.367188 -15.734375 5.4375 -16 5.53125 -16.3125 C 5.664062 -16.738281 5.734375 -17.003906 5.734375 -17.109375 C 5.734375 -17.421875 5.601562 -17.648438 5.34375 -17.796875 Z M 9.8125 -12.109375 C 9.59375 -12.953125 9.46875 -13.375 9.4375 -13.375 C 9.40625 -13.269531 9.328125 -12.9375 9.203125 -12.375 C 9.160156 -12.226562 9.113281 -12.035156 9.0625 -11.796875 C 9.007812 -11.566406 8.941406 -11.273438 8.859375 -10.921875 C 8.816406 -10.816406 8.753906 -10.566406 8.671875 -10.171875 C 8.585938 -9.785156 8.488281 -9.382812 8.375 -8.96875 C 8.238281 -8.46875 8.097656 -7.925781 7.953125 -7.34375 C 7.773438 -6.644531 7.6875 -6.269531 7.6875 -6.21875 C 7.6875 -6.175781 8.296875 -6.15625 9.515625 -6.15625 L 11.34375 -6.15625 L 11.28125 -6.421875 C 11.144531 -6.984375 10.953125 -7.734375 10.703125 -8.671875 C 10.460938 -9.617188 10.164062 -10.765625 9.8125 -12.109375 Z M 9.8125 -12.109375 "/></g></g></g><g fill="#000000" fill-opacity="1"><g transform="translate(138.652484, 157.315231)"><g><path d="M 1.5 -17.875 L 7.328125 -17.875 L 7.328125 2.015625 L 1.953125 2.015625 L 1.953125 -9.203125 C 1.953125 -11.273438 1.953125 -12.914062 1.953125 -14.125 C 1.953125 -15.332031 1.945312 -16.113281 1.9375 -16.46875 C 1.914062 -17.15625 1.859375 -17.546875 1.765625 -17.640625 L 1.71875 -17.6875 C 1.6875 -17.71875 1.648438 -17.75 1.609375 -17.78125 C 1.578125 -17.820312 1.539062 -17.851562 1.5 -17.875 Z M 8.015625 -17.875 L 8.90625 -17.875 L 9.328125 -16.859375 C 9.421875 -16.691406 9.554688 -16.382812 9.734375 -15.9375 C 9.890625 -15.519531 9.992188 -15.257812 10.046875 -15.15625 C 10.347656 -14.425781 10.6875 -13.585938 11.0625 -12.640625 C 11.4375 -11.703125 11.851562 -10.632812 12.3125 -9.4375 C 13.25 -7.0625 13.832031 -5.503906 14.0625 -4.765625 L 14.171875 -4.5 L 14.203125 -6.03125 L 14.203125 -12.484375 C 14.160156 -15.804688 14.125 -17.503906 14.09375 -17.578125 C 14.039062 -17.671875 13.9375 -17.769531 13.78125 -17.875 L 19.40625 -17.875 L 19.40625 2.015625 L 12.640625 2.015625 L 11.8125 -0.078125 C 11.195312 -1.648438 10.59375 -3.132812 10 -4.53125 C 9.414062 -5.9375 8.847656 -7.273438 8.296875 -8.546875 L 8.015625 -9.234375 Z M 8.015625 -17.875 "/></g></g></g><g fill="#000000" fill-opacity="1"><g transform="translate(160.033629, 157.315231)"><g><path d="M 1.5625 -17.8125 C 1.539062 -17.8125 1.554688 -17.820312 1.609375 -17.84375 C 1.703125 -17.863281 1.972656 -17.875 2.421875 -17.875 C 2.867188 -17.875 3.503906 -17.875 4.328125 -17.875 L 7.296875 -17.875 L 7.296875 2.015625 L 1.9375 2.015625 L 1.9375 -17.421875 L 1.828125 -17.578125 C 1.722656 -17.679688 1.632812 -17.757812 1.5625 -17.8125 Z M 9.234375 -18 C 9.398438 -18.019531 9.601562 -18.035156 9.84375 -18.046875 C 10.082031 -18.054688 10.363281 -18.050781 10.6875 -18.03125 C 11.425781 -18 12.101562 -17.921875 12.71875 -17.796875 C 13.332031 -17.671875 13.90625 -17.472656 14.4375 -17.203125 C 14.96875 -16.941406 15.457031 -16.601562 15.90625 -16.1875 C 16.351562 -15.78125 16.785156 -15.257812 17.203125 -14.625 C 18.003906 -13.40625 18.550781 -12.019531 18.84375 -10.46875 C 19.113281 -9.0625 19.1875 -7.695312 19.0625 -6.375 C 18.9375 -5.125 18.632812 -3.976562 18.15625 -2.9375 C 17.6875 -1.894531 17.0625 -0.992188 16.28125 -0.234375 C 15.507812 0.523438 14.597656 1.109375 13.546875 1.515625 C 12.492188 1.929688 11.328125 2.140625 10.046875 2.140625 C 9.660156 2.140625 9.304688 2.117188 8.984375 2.078125 C 8.671875 2.035156 8.375 1.96875 8.09375 1.875 C 8.019531 1.851562 7.984375 1.226562 7.984375 0 L 7.984375 -1.84375 L 8.828125 -1.84375 C 9.710938 -1.84375 10.453125 -1.972656 11.046875 -2.234375 C 11.648438 -2.503906 12.132812 -2.878906 12.5 -3.359375 C 12.875 -3.847656 13.144531 -4.4375 13.3125 -5.125 C 13.476562 -5.8125 13.578125 -6.585938 13.609375 -7.453125 C 13.648438 -8.109375 13.640625 -8.816406 13.578125 -9.578125 C 13.515625 -10.347656 13.367188 -11.039062 13.140625 -11.65625 C 12.984375 -12.113281 12.757812 -12.492188 12.46875 -12.796875 C 12.175781 -13.097656 11.847656 -13.335938 11.484375 -13.515625 C 11.117188 -13.703125 10.726562 -13.835938 10.3125 -13.921875 C 9.90625 -14.015625 9.484375 -14.070312 9.046875 -14.09375 L 7.984375 -14.125 L 7.984375 -17.765625 L 8.40625 -17.875 C 8.726562 -17.957031 9.003906 -18 9.234375 -18 Z M 9.234375 -18 "/></g></g></g><g fill="#000000" fill-opacity="1"><g transform="translate(180.357605, 157.315231)"><g><path d="M 5.34375 -17.796875 C 5.289062 -17.804688 5.304688 -17.820312 5.390625 -17.84375 C 5.515625 -17.863281 5.890625 -17.875 6.515625 -17.875 C 7.140625 -17.875 7.972656 -17.875 9.015625 -17.875 L 12.984375 -17.875 L 13.171875 -17.34375 C 13.253906 -16.96875 13.410156 -16.410156 13.640625 -15.671875 C 13.785156 -15.210938 13.898438 -14.820312 13.984375 -14.5 C 14.078125 -14.1875 14.140625 -13.945312 14.171875 -13.78125 C 14.191406 -13.664062 14.320312 -13.207031 14.5625 -12.40625 C 14.8125 -11.601562 15 -10.96875 15.125 -10.5 C 15.3125 -9.84375 15.492188 -9.207031 15.671875 -8.59375 C 15.847656 -7.976562 16.023438 -7.390625 16.203125 -6.828125 C 16.242188 -6.703125 16.289062 -6.546875 16.34375 -6.359375 C 16.394531 -6.171875 16.460938 -5.953125 16.546875 -5.703125 C 16.617188 -5.460938 16.671875 -5.265625 16.703125 -5.109375 C 16.742188 -4.960938 16.769531 -4.863281 16.78125 -4.8125 C 16.800781 -4.78125 16.820312 -4.703125 16.84375 -4.578125 C 16.875 -4.453125 16.925781 -4.289062 17 -4.09375 C 17.132812 -3.6875 17.210938 -3.40625 17.234375 -3.25 C 17.253906 -3.195312 17.28125 -3.097656 17.3125 -2.953125 C 17.351562 -2.816406 17.394531 -2.671875 17.4375 -2.515625 C 17.476562 -2.367188 17.519531 -2.234375 17.5625 -2.109375 C 17.613281 -1.992188 17.640625 -1.914062 17.640625 -1.875 C 17.648438 -1.851562 17.707031 -1.648438 17.8125 -1.265625 C 17.832031 -1.191406 17.875 -1.046875 17.9375 -0.828125 C 18 -0.609375 18.0625 -0.390625 18.125 -0.171875 C 18.195312 0.046875 18.257812 0.25 18.3125 0.4375 C 18.375 0.625 18.410156 0.722656 18.421875 0.734375 C 18.421875 0.804688 18.445312 0.929688 18.5 1.109375 C 18.550781 1.285156 18.597656 1.398438 18.640625 1.453125 C 18.660156 1.554688 18.675781 1.644531 18.6875 1.71875 C 18.707031 1.800781 18.726562 1.875 18.75 1.9375 C 18.757812 1.945312 18.734375 1.960938 18.671875 1.984375 C 18.597656 2.003906 18.351562 2.015625 17.9375 2.015625 C 17.519531 2.015625 16.96875 2.015625 16.28125 2.015625 L 13.5625 2.015625 L 13.453125 1.6875 C 13.421875 1.601562 13.382812 1.492188 13.34375 1.359375 C 13.3125 1.222656 13.28125 1.070312 13.25 0.90625 C 13.25 0.863281 13.226562 0.78125 13.1875 0.65625 C 13.15625 0.53125 13.113281 0.375 13.0625 0.1875 C 12.988281 -0.0078125 12.929688 -0.191406 12.890625 -0.359375 C 12.847656 -0.523438 12.804688 -0.675781 12.765625 -0.8125 L 12.453125 -2.09375 L 6.484375 -2.09375 L 6.421875 -1.90625 C 6.265625 -1.34375 6.117188 -0.804688 5.984375 -0.296875 C 5.859375 0.210938 5.738281 0.691406 5.625 1.140625 L 5.390625 2.015625 L 2.703125 2.015625 C 1.992188 1.992188 1.429688 1.976562 1.015625 1.96875 C 0.597656 1.957031 0.390625 1.945312 0.390625 1.9375 C 0.898438 0.332031 1.382812 -1.273438 1.84375 -2.890625 C 2.300781 -4.503906 2.753906 -6.128906 3.203125 -7.765625 C 3.203125 -7.804688 3.234375 -7.945312 3.296875 -8.1875 C 3.367188 -8.425781 3.425781 -8.613281 3.46875 -8.75 C 3.550781 -9.007812 3.628906 -9.269531 3.703125 -9.53125 C 3.773438 -9.800781 3.84375 -10.078125 3.90625 -10.359375 C 3.976562 -10.609375 4.050781 -10.878906 4.125 -11.171875 C 4.207031 -11.472656 4.304688 -11.800781 4.421875 -12.15625 C 4.429688 -12.207031 4.453125 -12.304688 4.484375 -12.453125 C 4.523438 -12.609375 4.566406 -12.769531 4.609375 -12.9375 C 4.648438 -13.101562 4.691406 -13.257812 4.734375 -13.40625 C 4.785156 -13.5625 4.8125 -13.65625 4.8125 -13.6875 C 4.84375 -13.78125 4.875 -13.890625 4.90625 -14.015625 C 4.945312 -14.140625 4.992188 -14.289062 5.046875 -14.46875 C 5.140625 -14.8125 5.191406 -15.007812 5.203125 -15.0625 C 5.242188 -15.15625 5.285156 -15.304688 5.328125 -15.515625 C 5.367188 -15.734375 5.4375 -16 5.53125 -16.3125 C 5.664062 -16.738281 5.734375 -17.003906 5.734375 -17.109375 C 5.734375 -17.421875 5.601562 -17.648438 5.34375 -17.796875 Z M 9.8125 -12.109375 C 9.59375 -12.953125 9.46875 -13.375 9.4375 -13.375 C 9.40625 -13.269531 9.328125 -12.9375 9.203125 -12.375 C 9.160156 -12.226562 9.113281 -12.035156 9.0625 -11.796875 C 9.007812 -11.566406 8.941406 -11.273438 8.859375 -10.921875 C 8.816406 -10.816406 8.753906 -10.566406 8.671875 -10.171875 C 8.585938 -9.785156 8.488281 -9.382812 8.375 -8.96875 C 8.238281 -8.46875 8.097656 -7.925781 7.953125 -7.34375 C 7.773438 -6.644531 7.6875 -6.269531 7.6875 -6.21875 C 7.6875 -6.175781 8.296875 -6.15625 9.515625 -6.15625 L 11.34375 -6.15625 L 11.28125 -6.421875 C 11.144531 -6.984375 10.953125 -7.734375 10.703125 -8.671875 C 10.460938 -9.617188 10.164062 -10.765625 9.8125 -12.109375 Z M 9.8125 -12.109375 "/></g></g></g><g fill="#000000" fill-opacity="1"><g transform="translate(199.518703, 157.315231)"><g><path d="M 1.5 -17.875 L 7.328125 -17.875 L 7.328125 2.015625 L 1.953125 2.015625 L 1.953125 -9.203125 C 1.953125 -11.273438 1.953125 -12.914062 1.953125 -14.125 C 1.953125 -15.332031 1.945312 -16.113281 1.9375 -16.46875 C 1.914062 -17.15625 1.859375 -17.546875 1.765625 -17.640625 L 1.71875 -17.6875 C 1.6875 -17.71875 1.648438 -17.75 1.609375 -17.78125 C 1.578125 -17.820312 1.539062 -17.851562 1.5 -17.875 Z M 8.015625 -17.875 L 8.90625 -17.875 L 9.328125 -16.859375 C 9.421875 -16.691406 9.554688 -16.382812 9.734375 -15.9375 C 9.890625 -15.519531 9.992188 -15.257812 10.046875 -15.15625 C 10.347656 -14.425781 10.6875 -13.585938 11.0625 -12.640625 C 11.4375 -11.703125 11.851562 -10.632812 12.3125 -9.4375 C 13.25 -7.0625 13.832031 -5.503906 14.0625 -4.765625 L 14.171875 -4.5 L 14.203125 -6.03125 L 14.203125 -12.484375 C 14.160156 -15.804688 14.125 -17.503906 14.09375 -17.578125 C 14.039062 -17.671875 13.9375 -17.769531 13.78125 -17.875 L 19.40625 -17.875 L 19.40625 2.015625 L 12.640625 2.015625 L 11.8125 -0.078125 C 11.195312 -1.648438 10.59375 -3.132812 10 -4.53125 C 9.414062 -5.9375 8.847656 -7.273438 8.296875 -8.546875 L 8.015625 -9.234375 Z M 8.015625 -17.875 "/></g></g></g><g fill="#000000" fill-opacity="1"><g transform="translate(79.292736, 131.437686)"><g><path d="M 12.640625 -14.546875 L 12.640625 -19.109375 L 12.046875 -19.109375 L 12.046875 -16.90625 C 11.359375 -18.1875 10.015625 -18.9375 8.25 -18.9375 C 5.296875 -18.9375 2.84375 -16.453125 2.84375 -13.375 C 2.84375 -6.515625 12.8125 -9.03125 12.8125 -4.125 C 12.8125 -1.96875 10.90625 -0.3125 8.28125 -0.3125 C 5.359375 -0.3125 3.078125 -2.453125 2.84375 -5.4375 L 2.25 -5.4375 L 2.25 0.28125 L 2.84375 0.28125 L 2.84375 -2.84375 C 3.921875 -0.859375 5.921875 0.28125 8.25 0.28125 C 11.75 0.28125 14.515625 -2.390625 14.515625 -5.71875 C 14.515625 -12.703125 4.78125 -10.046875 4.78125 -14.953125 C 4.78125 -16.828125 6.3125 -18.3125 8.375 -18.3125 C 10.46875 -18.3125 11.90625 -16.875 12.078125 -14.546875 Z M 12.640625 -14.546875 "/></g></g></g><g fill="#000000" fill-opacity="1"><g transform="translate(95.234863, 131.437686)"><g><path d="M 9.96875 -2.390625 C 9.875 -1.390625 9.21875 -0.765625 8.375 -0.765625 C 7.59375 -0.765625 6.78125 -1.3125 6.78125 -2.671875 L 6.78125 -18.078125 L 10 -18.078125 L 10 -18.671875 L 6.78125 -18.671875 L 6.78125 -26.1875 L 3.390625 -26.1875 L 3.390625 -18.671875 L 1.421875 -18.671875 L 1.421875 -18.078125 L 3.390625 -18.078125 L 3.390625 -4.671875 C 3.390625 -3.4375 3.5 -2.421875 3.875 -1.65625 C 4.53125 -0.3125 5.6875 0.28125 7.484375 0.28125 C 9.28125 0.28125 10.5 -0.875 10.59375 -2.390625 Z M 9.96875 -2.390625 "/></g></g></g><g fill="#000000" fill-opacity="1"><g transform="translate(106.67903, 131.437686)"><g><path d="M 14.0625 -18.671875 L 14.0625 -18.078125 L 16.03125 -18.078125 L 16.03125 -6.15625 C 16.03125 -2.5 14.125 -0.34375 11.46875 -0.34375 C 8.828125 -0.34375 6.921875 -2.5 6.921875 -6.15625 L 6.921875 -18.078125 L 8.828125 -18.078125 L 8.828125 -18.671875 L 1.5625 -18.671875 L 1.5625 -18.078125 L 3.53125 -18.078125 L 3.53125 -8.375 C 3.53125 -6.96875 3.765625 -5.609375 4.15625 -4.578125 C 5.328125 -1.703125 8.234375 0.25 11.46875 0.25 C 14.71875 0.25 17.625 -1.703125 18.796875 -4.578125 C 19.1875 -5.609375 19.421875 -6.96875 19.421875 -8.375 L 19.421875 -18.078125 L 21.328125 -18.078125 L 21.328125 -18.671875 Z M 14.0625 -18.671875 "/></g></g></g><g fill="#000000" fill-opacity="1"><g transform="translate(129.567365, 131.437686)"><g><path d="M 5.375 -11.328125 C 5.375 -13.46875 5.40625 -15.109375 6.546875 -16.65625 C 7.140625 -17.453125 8.28125 -18.328125 9.90625 -18.328125 C 11.75 -18.328125 13.640625 -17.109375 14.484375 -15 L 14.484375 -6.921875 C 14.484375 -4.1875 14.03125 -2.796875 13.15625 -1.796875 C 12.328125 -0.859375 11.28125 -0.3125 9.9375 -0.3125 C 8.484375 -0.3125 7.28125 -0.96875 6.546875 -2 C 5.671875 -3.1875 5.375 -4.46875 5.375 -7.140625 Z M 17.875 -25.59375 L 19.84375 -25.59375 L 19.84375 -26.1875 L 14.484375 -26.1875 L 14.484375 -16.28125 C 13.609375 -17.796875 11.78125 -18.9375 9.765625 -18.9375 C 7.546875 -18.9375 5.40625 -17.875 4.046875 -16.34375 C 2.671875 -14.796875 2 -12.84375 2 -10.359375 L 2 -8.375 C 2 -5.640625 2.59375 -3.875 4.15625 -2.15625 C 5.609375 -0.59375 7.828125 0.28125 9.9375 0.28125 C 13.375 0.28125 16.484375 -1.90625 17.453125 -5.09375 C 17.796875 -6.171875 17.875 -7.0625 17.875 -8.28125 Z M 17.875 -25.59375 "/></g></g></g><g fill="#000000" fill-opacity="1"><g transform="translate(149.694295, 131.437686)"><g><path d="M 7.203125 -23.375 C 7.203125 -24.375 6.375 -25.1875 5.375 -25.1875 C 4.390625 -25.1875 3.5625 -24.375 3.5625 -23.375 C 3.5625 -22.375 4.390625 -21.546875 5.375 -21.546875 C 6.375 -21.546875 7.203125 -22.375 7.203125 -23.375 Z M 9.109375 0 L 9.109375 -0.59375 L 7.203125 -0.59375 L 7.203125 -18.671875 L 1.84375 -18.671875 L 1.84375 -18.078125 L 3.8125 -18.078125 L 3.8125 -0.59375 L 1.84375 -0.59375 L 1.84375 0 Z M 9.109375 0 "/></g></g></g><g fill="#000000" fill-opacity="1"><g transform="translate(160.512163, 131.437686)"><g><path d="M 17.734375 -10.28125 C 17.734375 -13.015625 17.140625 -14.78125 15.578125 -16.484375 C 14.125 -18.046875 11.90625 -18.9375 9.796875 -18.9375 C 6.34375 -18.9375 3.25 -16.734375 2.28125 -13.546875 C 1.9375 -12.46875 1.84375 -11.59375 1.84375 -10.359375 L 1.84375 -8.375 C 1.84375 -5.640625 2.453125 -3.875 4.015625 -2.15625 C 5.46875 -0.59375 7.6875 0.28125 9.796875 0.28125 C 13.234375 0.28125 16.34375 -1.90625 17.3125 -5.09375 C 17.65625 -6.171875 17.734375 -7.0625 17.734375 -8.28125 Z M 14.34375 -6.921875 C 14.34375 -4.1875 13.890625 -2.796875 13.015625 -1.796875 C 12.1875 -0.859375 11.125 -0.3125 9.796875 -0.3125 C 8.34375 -0.3125 7.140625 -0.96875 6.40625 -2 C 5.515625 -3.1875 5.234375 -4.46875 5.234375 -7.140625 L 5.234375 -11.734375 C 5.234375 -14.46875 5.6875 -15.859375 6.578125 -16.859375 C 7.40625 -17.796875 8.453125 -18.328125 9.796875 -18.328125 C 11.25 -18.328125 12.4375 -17.671875 13.1875 -16.65625 C 14.0625 -15.453125 14.34375 -14.171875 14.34375 -11.5 Z M 14.34375 -6.921875 "/></g></g></g></svg>